<svg width="49" height="40" viewBox="0 0 49 40" fill="none" xmlns="http://www.w3.org/2000/svg">
<g clip-path="url(#clip0_95_280)">
<path d="M6.84845 32.5553H0.592045L0.592044 26.8471H6.6222C7.48209 26.8471 8.18353 27.4876 8.18353 28.3416C8.18353 28.7125 8.05901 29.0383 7.84409 29.308C8.3306 29.6339 8.63601 30.1732 8.63601 30.7912C8.63601 31.7575 7.83274 32.5553 6.84845 32.5553ZM6.6222 27.7236H1.4745V29.0046H6.66745C6.98424 29.0046 7.27837 28.6787 7.27837 28.3304C7.28971 27.9595 6.98424 27.7236 6.6222 27.7236ZM6.84845 29.8923H1.4745V31.6789H6.84845C7.33496 31.6789 7.74226 31.2744 7.74226 30.7912C7.74226 30.2855 7.33496 29.8923 6.84845 29.8923ZM17.4267 33.4206V32.5553H9.99364V26.8471H10.8761V31.6789H16.68V26.8471H17.5625V31.6789H18.2979V33.4206H17.4267ZM26.1834 32.5553V28.0045L20.3796 32.5553H19.497V26.8471H20.3796V31.398L26.1834 26.8471H27.0658V32.5553H26.1834ZM34.2274 32.5553H31.3198C29.7133 32.5553 28.4122 31.2744 28.4122 29.6675C28.4122 28.0719 29.702 26.8359 31.3198 26.8359H34.2274C35.834 26.8359 37.1349 28.0719 37.1349 29.6675C37.1237 31.2744 35.8226 32.5553 34.2274 32.5553ZM34.2274 27.7236H31.3198C30.211 27.7236 29.306 28.5775 29.306 29.6787C29.306 30.7799 30.1998 31.6789 31.3198 31.6789H34.2274C35.3361 31.6789 36.2413 30.7799 36.2413 29.6787C36.2413 28.5775 35.3248 27.7236 34.2274 27.7236ZM47.4078 32.5553V28.0045C43.3801 31.162 43.3801 31.162 43.3801 31.1507L39.3525 28.0045V32.5553H38.47V26.8471H39.3525L43.3801 30.0047L47.4078 26.8471H48.2902V32.5553H47.4078ZM1.71209 37.7354C1.71209 38.0501 1.45188 38.3085 1.1351 38.3085C0.818318 38.3085 0.558105 38.0501 0.558105 37.7354C0.558105 37.4208 0.818318 37.1624 1.1351 37.1624C1.46319 37.1624 1.71209 37.4208 1.71209 37.7354ZM48.2902 37.7354C48.2902 38.0501 48.0301 38.3085 47.7132 38.3085C47.3965 38.3085 47.1362 38.0501 47.1362 37.7354C47.1362 37.4208 47.3965 37.1624 47.7132 37.1624C48.03 37.1624 48.2902 37.4208 48.2902 37.7354Z" fill="#1A1C21"/>
<path d="M4.13281 37.3093C4.13281 36.5565 4.72111 36.0059 5.4565 36.0059C6.19189 36.0059 6.78023 36.5565 6.78023 37.3093C6.78023 38.0622 6.19189 38.6128 5.4565 38.6128C4.72111 38.6128 4.13281 38.0622 4.13281 37.3093ZM4.42697 37.3093C4.42697 37.8936 4.89083 38.3544 5.4565 38.3544C6.02219 38.3544 6.48604 37.8936 6.48604 37.3093C6.48604 36.7251 6.02219 36.2644 5.4565 36.2644C4.89083 36.2644 4.42697 36.7363 4.42697 37.3093ZM8.85058 37.4442C8.70344 37.2644 8.49986 37.2082 8.35279 37.2082C8.05866 37.2082 7.78708 37.4105 7.78708 37.7925C7.78708 38.1746 8.05866 38.3768 8.34145 38.3768C8.49986 38.3768 8.70344 38.3094 8.85058 38.1296V38.4555C8.68089 38.5791 8.49986 38.6128 8.35279 38.6128C7.86628 38.6128 7.50429 38.2645 7.50429 37.7925C7.50429 37.3093 7.86628 36.9611 8.35279 36.9611C8.60169 36.9611 8.77144 37.0621 8.8393 37.1071V37.4442H8.85058ZM9.66519 37.0059H9.9367V37.6465H10.6834V37.0059H10.955V38.5791H10.6834V37.9049H9.9367V38.5791H9.66519V37.0059ZM11.7582 37.7925C11.7582 37.3206 12.1089 36.9611 12.5954 36.9611C13.0818 36.9611 13.4326 37.3093 13.4326 37.7925C13.4326 38.2645 13.0706 38.6128 12.5954 38.6128C12.1202 38.624 11.7582 38.2757 11.7582 37.7925ZM12.041 37.7925C12.041 38.1746 12.3125 38.3768 12.5954 38.3768C12.8782 38.3768 13.1497 38.1746 13.1497 37.7925C13.1497 37.4105 12.8782 37.2082 12.5954 37.2082C12.3125 37.2082 12.041 37.4105 12.041 37.7925ZM14.8355 37.0059C14.9147 37.0059 15.0618 37.0059 15.1636 37.0959C15.2202 37.1408 15.2993 37.2307 15.2993 37.388C15.2993 37.5453 15.2202 37.6465 15.1296 37.7026C15.1749 37.7139 15.2541 37.7364 15.3333 37.8038C15.4238 37.8825 15.4577 37.9835 15.4577 38.1072C15.4577 38.2757 15.3785 38.3993 15.2993 38.4667C15.2088 38.5341 15.0504 38.5679 14.926 38.5679H14.2472V36.9947H14.8355V37.0059ZM14.8015 37.6465C14.8242 37.6465 14.9147 37.6465 14.9712 37.6015C15.0052 37.5791 15.0504 37.5341 15.0504 37.4442C15.0504 37.3655 15.0165 37.3206 14.9712 37.2981C14.9034 37.2532 14.8355 37.2644 14.7449 37.2644H14.4961V37.6577H14.8015V37.6465ZM14.8468 38.3319C14.926 38.3319 15.0278 38.3319 15.0957 38.2757C15.141 38.242 15.1862 38.1746 15.1862 38.1072C15.1862 38.0397 15.1636 37.9723 15.107 37.9273C15.0391 37.8712 14.9373 37.8712 14.8581 37.8712H14.5074V38.3319H14.8468ZM17.4716 37.0059H17.7431V38.5791H17.4716V38.3544C17.381 38.4667 17.2113 38.624 16.9285 38.624C16.5325 38.6241 16.1592 38.3431 16.1592 37.7925C16.1592 37.2532 16.5212 36.9722 16.9285 36.9722C17.2339 36.9722 17.3924 37.1408 17.4716 37.2307V37.0059ZM16.442 37.7925C16.442 38.1296 16.6343 38.3881 16.9625 38.3881C17.3018 38.3881 17.4829 38.1071 17.4829 37.8038C17.4829 37.3993 17.2 37.2195 16.9625 37.2195C16.6909 37.2082 16.442 37.4105 16.442 37.7925ZM18.6368 37.0059H18.9084V37.6465H19.6551V37.0059H19.9267V38.5791H19.6551V37.9049H18.9084V38.5791H18.6368V37.0059ZM22.6985 37.0059C22.7777 37.0059 22.9247 37.0059 23.0265 37.0959C23.0831 37.1408 23.1623 37.2307 23.1623 37.388C23.1623 37.5453 23.0831 37.6465 22.9926 37.7026C23.0379 37.7139 23.117 37.7364 23.1962 37.8038C23.2868 37.8825 23.3207 37.9835 23.3207 38.1071C23.3207 38.2757 23.2415 38.3993 23.1623 38.4667C23.0718 38.5341 22.9134 38.5679 22.7889 38.5679H22.1102V36.9947H22.6985V37.0059ZM22.6646 37.6465C22.6871 37.6465 22.7777 37.6465 22.8342 37.6015C22.8681 37.5791 22.9134 37.5341 22.9134 37.4441C22.9134 37.3655 22.8795 37.3206 22.8342 37.2981C22.7663 37.2532 22.6985 37.2644 22.6079 37.2644H22.359V37.6577H22.6646V37.6465ZM22.7211 38.3319C22.8003 38.3319 22.902 38.3319 22.97 38.2757C23.0152 38.242 23.0604 38.1746 23.0604 38.1071C23.0604 38.0397 23.0379 37.9723 22.9812 37.9273C22.9134 37.8712 22.8116 37.8712 22.7324 37.8712H22.3816V38.3319H22.7211ZM26.4319 36.3205H26.0021L26.1491 36.0508H26.7148V38.5791H26.4319V36.3205ZM28.3553 38.4779L28.9435 37.6689C28.8757 37.6914 28.7965 37.7026 28.7173 37.7026C28.2307 37.7026 27.8914 37.3431 27.8914 36.8711C27.8914 36.3655 28.2534 36.0059 28.7625 36.0059C29.3622 36.0059 29.645 36.4666 29.645 36.8599C29.645 36.9498 29.6224 37.1745 29.43 37.4441L28.5702 38.6353L28.3553 38.4779ZM28.1629 36.8711C28.1629 37.2082 28.4118 37.4554 28.7625 37.4554C29.1133 37.4554 29.3508 37.1969 29.3508 36.8711C29.3508 36.534 29.1133 36.2643 28.7512 36.2643C28.4118 36.2643 28.1629 36.5227 28.1629 36.8711ZM32.0887 37.8825C32.0887 38.2757 31.8285 38.624 31.3081 38.624C30.7877 38.624 30.5275 38.2757 30.5275 37.8825C30.5275 37.6127 30.6519 37.3767 30.9121 37.2644C30.7085 37.152 30.6066 36.9498 30.6066 36.7138C30.6066 36.3542 30.8556 36.0171 31.3081 36.0171C31.7606 36.0171 32.0095 36.3542 32.0095 36.7138C32.0095 36.9498 31.9077 37.152 31.7041 37.2644C31.9643 37.3767 32.0887 37.6015 32.0887 37.8825ZM31.8059 37.8712C31.8059 37.5902 31.6023 37.388 31.3081 37.388C31.0139 37.388 30.8103 37.5903 30.8103 37.8712C30.8103 38.1633 31.0139 38.3655 31.3081 38.3655C31.6023 38.3655 31.8059 38.1633 31.8059 37.8712ZM31.738 36.7138C31.738 36.4329 31.5344 36.2643 31.3081 36.2643C31.0819 36.2643 30.8782 36.4329 30.8782 36.7138C30.8782 36.9611 31.0705 37.152 31.3081 37.152C31.5457 37.152 31.738 36.9611 31.738 36.7138ZM34.4193 36.3093H33.0278V36.0508H34.8945L33.1974 38.6353L32.9712 38.4892L34.4193 36.3093ZM36.8405 37.0059H37.7795V37.2532H37.112V38.5791H36.8405V37.0059ZM38.3452 37.7925C38.3452 37.3206 38.6959 36.9611 39.1824 36.9611C39.6688 36.9611 40.0195 37.3093 40.0195 37.7925C40.0195 38.2645 39.6576 38.6128 39.1824 38.6128C38.7072 38.6128 38.3452 38.2757 38.3452 37.7925ZM38.6167 37.7925C38.6167 38.1746 38.8883 38.3768 39.171 38.3768C39.4539 38.3768 39.7254 38.1746 39.7254 37.7925C39.7254 37.4105 39.4539 37.2082 39.171 37.2082C38.8883 37.2082 38.6167 37.4105 38.6167 37.7925ZM42.0447 37.0059V38.3319H42.2823V38.9948H42.0334V38.5791H40.8342V38.9948H40.5739V38.3319C40.7097 38.3319 40.8115 38.242 40.868 38.1296C40.9246 38.0173 40.936 37.8712 40.936 37.7139V37.0172H42.0447V37.0059ZM41.7731 37.2532H41.2075V37.8487C41.2075 38.0285 41.1622 38.1971 41.0151 38.3319H41.7731V37.2532ZM43.4476 38.4331L42.7235 37.0059H43.0403L43.606 38.1296L44.1151 37.0059H44.4206L43.2553 39.4668H42.9497L43.4476 38.4331Z" fill="#1A1C21"/>
<path d="M25.199 2.41917C24.8936 1.68879 24.441 1.05953 23.8414 0.542647L23.4907 0.239258L23.14 0.542647C22.5404 1.05953 22.0878 1.68879 21.7823 2.41917C21.0357 4.21704 21.409 6.23962 22.6761 7.65545C22.4838 7.77905 22.2915 7.88019 22.0765 7.97005C21.8729 8.05999 21.6579 8.12739 21.4429 8.17239C21.3298 6.27334 20.1532 4.58785 18.3656 3.84622C17.7547 3.59901 17.1098 3.46418 16.4536 3.46418C16.3292 3.46418 16.2048 3.46418 16.0803 3.47541L15.6164 3.50913L15.5825 3.96983C15.5259 4.75639 15.6504 5.52048 15.9446 6.25086C16.7251 8.12738 18.5354 9.34092 20.5718 9.34092C20.6962 9.34092 20.8207 9.34092 20.9338 9.32972C21.4656 9.28479 21.9861 9.16119 22.4724 8.95885C22.9589 8.75665 23.4115 8.47572 23.8188 8.12739C25.4819 6.70032 26.025 4.40806 25.199 2.41917ZM16.9514 5.83511C16.7704 5.40812 16.68 4.96988 16.6573 4.52042C17.1098 4.54289 17.5397 4.64402 17.9697 4.81258C19.3952 5.39688 20.3229 6.74525 20.3908 8.25105C18.8635 8.18352 17.5285 7.25092 16.9514 5.83511ZM23.4907 6.96999C22.4838 5.85758 22.1896 4.2395 22.7779 2.82368C22.9477 2.39669 23.1966 2.02588 23.4907 1.68878C23.7962 2.01465 24.0337 2.39669 24.2035 2.82368C24.8031 4.2395 24.5089 5.84634 23.4907 6.96999ZM21.0696 12.3749C20.866 11.8805 20.583 11.4309 20.2324 11.0265C19.2821 9.92525 17.9018 9.28479 16.4423 9.28479C15.7861 9.28479 15.1412 9.40839 14.5303 9.66679C13.8062 9.97019 13.1726 10.4197 12.6522 11.0265L12.3581 11.3748L12.6522 11.7231C13.1726 12.3187 13.795 12.7794 14.5303 13.0827C15.1412 13.3412 15.7861 13.4648 16.4423 13.4648C17.6755 13.4648 18.8635 13.0153 19.7685 12.1951C19.8816 12.3861 19.9948 12.5771 20.074 12.7906C20.2324 13.1727 20.3908 13.5885 20.3908 14.0041V22.2519H10.0049V23.2856H21.4429V13.9143C21.409 13.3861 21.2733 12.8693 21.0696 12.3749ZM16.4536 12.3861C15.9332 12.3861 15.4354 12.2849 14.9489 12.0827C14.5303 11.9029 14.1457 11.6669 13.8176 11.3635C14.1457 11.0601 14.5303 10.8129 14.9489 10.6445C15.4241 10.4421 15.9332 10.3411 16.4536 10.3411C17.4379 10.3411 18.377 10.7119 19.101 11.3635C18.377 12.0265 17.4379 12.3861 16.4536 12.3861ZM26.6133 22.2407V13.9705C26.6472 13.5547 26.7377 13.1614 26.8961 12.7681C26.9866 12.5659 27.0884 12.3636 27.2016 12.1726C28.1066 12.9816 29.2946 13.4424 30.5278 13.4424C31.184 13.4424 31.8288 13.3187 32.4398 13.0603C33.1638 12.7569 33.7974 12.3074 34.3178 11.7007L34.612 11.3523L34.3178 11.004C33.8087 10.4085 33.1752 9.94772 32.4398 9.64438C31.8288 9.38592 31.184 9.26225 30.5278 9.26225C29.2946 9.26225 28.1066 9.71178 27.2016 10.5321C27.0884 10.3411 26.9753 10.15 26.8961 9.93652C26.8056 9.72305 26.7377 9.50945 26.6925 9.29599C28.6045 9.18359 30.2789 8.00378 31.0256 6.21715C31.331 5.48676 31.4555 4.72268 31.3876 3.93612L31.3536 3.47541L30.9011 3.44171C30.7767 3.43047 30.6522 3.43047 30.5278 3.43047C29.8716 3.43047 29.2267 3.55407 28.6158 3.81251C26.6245 4.66649 25.3914 6.66665 25.5498 8.82405V8.83532C25.595 9.36339 25.7082 9.86912 25.9118 10.3635C26.0589 10.7231 26.2513 11.0601 26.4775 11.3748C26.2513 11.6894 26.0589 12.0265 25.9118 12.3861C25.7082 12.8805 25.5837 13.3974 25.5498 13.9255V23.2744H36.9878V22.2407H26.6133ZM30.5391 10.3522C31.0595 10.3522 31.5573 10.4534 32.0438 10.6556C32.4624 10.8354 32.8471 11.0714 33.1864 11.3748C32.8583 11.6781 32.4737 11.9254 32.0438 12.0939C31.5686 12.2962 31.0595 12.3973 30.5391 12.3973C29.5547 12.3973 28.6158 12.0265 27.8917 11.3748C28.6158 10.7119 29.5547 10.3522 30.5391 10.3522ZM29.0343 4.81258C29.453 4.64402 29.8942 4.54289 30.3467 4.52042C30.3242 4.96988 30.2223 5.40812 30.0526 5.83511C29.4643 7.25092 28.1293 8.18352 26.6133 8.26219C26.6811 6.74525 27.6088 5.40812 29.0343 4.81258Z" fill="#1A1C21"/>
</g>
<defs>
<clipPath id="clip0_95_280">
<rect width="49" height="40" fill="white"/>
</clipPath>
</defs>
</svg>
