<svg width="24" height="24" viewBox="0 0 24 24" fill="none" xmlns="http://www.w3.org/2000/svg">
<path fill-rule="evenodd" clip-rule="evenodd" d="M7.71761 11.7823C8.00936 11.4883 8.48423 11.4864 8.77826 11.7782L12 14.9749L15.2217 11.7782C15.5158 11.4864 15.9906 11.4883 16.2824 11.7823C16.5741 12.0763 16.5723 12.5512 16.2783 12.8429L12.5283 16.5639C12.2358 16.854 11.7642 16.854 11.4717 16.5639L7.72174 12.8429C7.42771 12.5512 7.42586 12.0763 7.71761 11.7823Z" fill="#21272A"/>
<path fill-rule="evenodd" clip-rule="evenodd" d="M12 7.21875C12.4142 7.21875 12.75 7.55454 12.75 7.96875V15.5142C12.75 15.9284 12.4142 16.2642 12 16.2642C11.5858 16.2642 11.25 15.9284 11.25 15.5142V7.96875C11.25 7.55454 11.5858 7.21875 12 7.21875Z" fill="#21272A"/>
<path fill-rule="evenodd" clip-rule="evenodd" d="M2.25 12C2.25 6.61704 6.61704 2.25 12 2.25C17.383 2.25 21.75 6.61704 21.75 12C21.75 17.383 17.383 21.75 12 21.75C6.61704 21.75 2.25 17.383 2.25 12ZM12 3.75C7.44546 3.75 3.75 7.44546 3.75 12C3.75 16.5545 7.44546 20.25 12 20.25C16.5545 20.25 20.25 16.5545 20.25 12C20.25 7.44546 16.5545 3.75 12 3.75Z" fill="#21272A"/>
</svg>
