<svg width="495" height="129" viewBox="0 0 495 129" fill="none" xmlns="http://www.w3.org/2000/svg">
<path d="M249.036 128.497L236.772 128.481C236.056 128.481 234.712 127.307 234.712 126.272L234.737 47.578C234.737 38.5447 231.596 32.1437 235.838 32.1329L246.945 32.1115C247.615 32.1115 248.914 33.0229 248.99 33.6876L249.944 41.9007C258.037 29.7634 272.823 27.9675 284.239 33.9664C299.476 41.9704 303.079 63.543 297.518 79.3312C294.656 87.4531 289.029 93.4949 281.524 96.8027C271.036 100.47 257.87 99.4778 250.675 88.6647L250.73 126.363C250.73 127.012 249.619 128.502 249.031 128.502L249.036 128.497ZM270.194 85.1908C277.45 83.7701 282.453 77.9052 283.62 70.5123C285.553 58.2357 281.692 45.8035 268.895 44.3078C259.696 43.2302 251.816 49.6152 250.558 59.399C250.177 62.3422 250.162 65.3551 250.253 68.3679C250.588 79.417 259.579 87.2708 270.194 85.1908Z" fill="black"/>
<path d="M432.689 93.8111C433.698 95.1674 432.775 96.8615 431.633 97.285L416.452 97.3868L395.984 69.4936L389.063 75.9321L389.139 94.7707C389.144 96.261 387.992 97.3279 386.632 97.3225L375.348 97.3118C374.155 97.3118 372.988 96.127 372.983 94.6367L372.938 3.17264C372.938 1.89136 374.379 0.760187 375.292 0.760187L386.17 0.722656C387.439 0.722656 389.093 1.48392 389.098 3.16727L389.134 57.233C389.134 58.6751 392.046 57.3831 392.721 56.6165L414.179 32.2346L428.772 32.0845C429.238 32.0845 430.258 32.6206 430.471 33.0495C430.684 33.4784 430.456 34.7168 430.101 35.1188L407.679 60.2834L432.679 93.8057L432.689 93.8111Z" fill="black"/>
<path d="M80.1588 78.8858C82.4167 76.602 88.0336 84.9062 89.0383 86.5252C80.2806 99.5095 60.9234 101.15 47.868 96.0999C29.6372 89.0502 23.4317 64.6362 32.7019 47.2398C40.4955 32.6096 57.9246 27.5059 72.9335 32.6203C86.8615 37.3648 91.8797 51.7377 90.7939 66.2445C90.6315 68.3943 88.9926 69.1556 87.2116 69.1609L44.575 69.1931C44.6511 76.8593 49.8164 82.987 56.849 85.1045C65.013 87.5653 73.8011 85.319 80.1537 78.8911L80.1588 78.8858ZM75.9829 58.1333C76.4244 52.1612 73.3698 46.8967 68.0929 44.629C62.8159 42.3613 57.1635 42.6883 52.2215 45.535C47.7817 48.0975 44.9961 52.8099 44.5039 58.2084L75.9829 58.128V58.1333Z" fill="black"/>
<path d="M446.662 95.9083C440.249 92.6864 436.814 86.3818 436.585 79.1606C436.357 71.9393 439.605 65.624 445.658 62.2037C455.44 56.6765 467.856 57.6576 478.71 57.5397C479.73 50.892 476.091 45.0324 469.734 43.7136C461.656 42.041 453.228 44.4427 446.926 49.9967C446.069 49.8466 444.602 49.0532 444.166 48.3134L439.853 41.001C440.726 39.1246 442.466 37.6932 444.293 36.5835C454.583 30.3004 466.913 28.9387 478.334 32.6163C487.645 35.6131 493.719 44.1211 493.861 54.4624L494.282 85.5723C494.338 89.5663 495.743 93.0616 494.464 97.1896L482.941 97.3558C481.399 97.3773 480.409 95.8172 480.267 94.359L479.674 88.3493C471.718 99.3179 457.445 101.323 446.673 95.9137L446.662 95.9083ZM476.863 79.5037C479.05 75.9118 478.923 72.068 478.588 68.1973L464.883 68.1651C459.86 68.1544 452.731 70.3203 451.96 76.8446C451.579 80.0505 452.574 83.4386 455.511 85.1488C462.691 89.325 472.296 86.993 476.858 79.509L476.863 79.5037Z" fill="black"/>
<path d="M205.841 95.5159C196.079 100.132 184.875 99.9763 175.255 95.457C162.332 89.383 155.598 75.0262 157.273 60.4764C158.607 48.8752 164.858 39.1021 175.032 34.2129C185.175 29.3397 197.038 29.3612 207.104 34.6364C218.734 40.7319 224.955 53.7055 224.041 67.242C223.209 79.5401 216.872 90.2997 205.841 95.5159ZM183.85 84.5527C191.801 87.5709 200.696 85.2389 205.237 77.8514C209.52 70.8768 209.591 61.8542 206.602 54.3488C204.187 48.2802 199.067 44.8491 193.095 43.9967C184.337 42.7422 176.173 47.8995 173.773 56.9918C171.023 67.4136 173.748 80.7249 183.85 84.5581V84.5527Z" fill="black"/>
<path d="M138.743 96.0372C126.144 101.205 109.217 98.9321 98.4198 89.9525C97.0955 88.8535 97.3441 87.154 98.1914 85.8996L102.398 79.6861C105.528 75.065 108.096 83.7605 119.796 85.9907C125.474 87.0736 135.11 86.5536 135.216 79.4127C135.379 68.5674 109.258 72.3255 101.961 59.4216C96.7656 50.2274 100.708 38.8782 109.532 34.1981C120.943 28.1455 136.825 29.802 147.074 37.9776C147.932 38.6638 147.886 40.3418 147.394 41.2102L143.33 48.3833C142.32 50.1631 140.407 49.4179 139.108 48.4262C128.777 40.5723 114.991 41.6767 114.448 48.839C113.571 60.3544 140.392 55.3955 148.084 69.5271C153.569 79.6057 148.916 91.861 138.743 96.0318V96.0372Z" fill="black"/>
<path d="M23.6701 94.5291C23.6853 95.3654 22.6452 96.8611 21.9145 97.022C15.6025 98.4051 3.56193 99.6596 1.1112 91.2696C0.400846 88.8304 0 86.2034 0 83.3728L0.0203003 4.16406C0.0203003 1.95533 0.771246 0.749114 3.01395 0.759836L13.7302 0.808084C15.1864 0.813445 16.5361 1.93925 16.5361 3.68694L16.4854 80.9068C16.4854 82.0219 16.9369 83.4694 17.5002 84.0215C19.5856 86.0534 23.457 83.4211 23.5128 86.2892L23.6701 94.5237V94.5291Z" fill="black"/>
<path d="M364.845 86.258L364.992 94.2995C365.078 99.0118 352.693 98.1701 349.526 97.3767C342.798 95.688 341.388 90.654 341.388 83.3845L341.408 3.09279C341.408 1.79543 342.91 0.80901 343.864 0.803649L355.204 0.771484C356.523 0.771484 357.848 1.88121 357.848 3.59673L357.817 80.6826C357.817 81.9263 358.309 83.3362 358.979 84.0385C361.004 86.1615 364.799 83.3362 364.855 86.258H364.845Z" fill="black"/>
<path d="M324.258 97.3163H312.918C311.883 97.3163 310.883 96.3513 310.686 95.129L310.721 34.7213C310.721 33.3006 311.69 32.1641 312.959 32.1641L324.137 32.1855C325.745 32.1855 326.648 33.5097 326.648 35.2091L326.664 94.6733C326.664 96.1369 325.456 97.3217 324.258 97.3217V97.3163Z" fill="black"/>
<path d="M323.233 19.4594C319.712 21.191 315.135 20.746 312.157 18.5266C308.351 15.6906 307.499 10.6995 309.178 6.34105C310.675 2.45433 314.577 -0.226183 319.067 0.0150624C323.532 0.250946 327.206 3.39785 328.272 7.67057C329.337 11.9433 327.729 17.2507 323.238 19.4594H323.233Z" fill="black"/>
</svg>
