<svg width="495" height="129" viewBox="0 0 495 129" fill="none" xmlns="http://www.w3.org/2000/svg">
<path d="M249.036 128.497L236.772 128.481C236.057 128.481 234.712 127.307 234.712 126.272L234.738 47.578C234.738 38.5447 231.597 32.1437 235.839 32.1329L246.946 32.1115C247.615 32.1115 248.914 33.0229 248.991 33.6876L249.944 41.9007C258.037 29.7634 272.823 27.9675 284.239 33.9664C299.477 41.9704 303.079 63.543 297.518 79.3312C294.656 87.4531 289.029 93.4949 281.525 96.8027C271.037 100.47 257.87 99.4778 250.675 88.6647L250.731 126.363C250.731 127.012 249.62 128.502 249.031 128.502L249.036 128.497ZM270.195 85.1908C277.45 83.7701 282.453 77.9052 283.62 70.5123C285.554 58.2357 281.692 45.8035 268.896 44.3078C259.697 43.2302 251.817 49.6152 250.558 59.399C250.178 62.3422 250.163 65.3551 250.254 68.3679C250.589 79.417 259.58 87.2708 270.195 85.1908Z" fill="black"/>
<path d="M432.689 93.8111C433.698 95.1674 432.775 96.8615 431.633 97.285L416.452 97.3868L395.984 69.4936L389.063 75.9321L389.139 94.7707C389.144 96.261 387.992 97.3279 386.632 97.3225L375.348 97.3118C374.155 97.3118 372.988 96.127 372.983 94.6367L372.938 3.17264C372.938 1.89136 374.379 0.760187 375.292 0.760187L386.17 0.722656C387.439 0.722656 389.093 1.48392 389.098 3.16727L389.134 57.233C389.134 58.6751 392.046 57.3831 392.721 56.6165L414.179 32.2346L428.772 32.0845C429.238 32.0845 430.258 32.6206 430.471 33.0495C430.684 33.4784 430.456 34.7168 430.101 35.1188L407.679 60.2834L432.679 93.8057L432.689 93.8111Z" fill="black"/>
<path d="M80.1588 78.8863C82.4167 76.6025 88.0336 84.9067 89.0383 86.5257C80.2806 99.51 60.9234 101.15 47.868 96.1004C29.6372 89.0507 23.4317 64.6367 32.7019 47.2403C40.4955 32.6101 57.9246 27.5064 72.9335 32.6208C86.8615 37.3653 91.8797 51.7382 90.7939 66.245C90.6315 68.3948 88.9926 69.1561 87.2116 69.1614L44.575 69.1936C44.6511 76.8598 49.8164 82.9874 56.849 85.105C65.013 87.5657 73.8011 85.3195 80.1537 78.8916L80.1588 78.8863ZM75.9829 58.1338C76.4244 52.1617 73.3698 46.8972 68.0929 44.6295C62.8159 42.3618 57.1635 42.6888 52.2215 45.5355C47.7817 48.098 44.9961 52.8104 44.5039 58.2089L75.9829 58.1285V58.1338Z" fill="black"/>
<path d="M446.662 95.9073C440.249 92.6854 436.814 86.3809 436.585 79.1596C436.357 71.9383 439.605 65.6231 445.658 62.2027C455.44 56.6755 467.856 57.6566 478.71 57.5387C479.73 50.891 476.091 45.0315 469.734 43.7127C461.656 42.04 453.228 44.4417 446.926 49.9957C446.069 49.8456 444.602 49.0522 444.166 48.3124L439.853 41C440.726 39.1236 442.466 37.6922 444.293 36.5825C454.583 30.2994 466.913 28.9377 478.334 32.6154C487.645 35.6122 493.719 44.1201 493.861 54.4615L494.282 85.5714C494.338 89.5653 495.743 93.0607 494.464 97.1886L482.941 97.3548C481.399 97.3763 480.409 95.8162 480.267 94.358L479.674 88.3484C471.718 99.317 457.445 101.322 446.673 95.9127L446.662 95.9073ZM476.863 79.5027C479.05 75.9108 478.923 72.067 478.588 68.1963L464.883 68.1642C459.86 68.1534 452.731 70.3193 451.96 76.8436C451.579 80.0495 452.574 83.4377 455.511 85.1478C462.691 89.324 472.296 86.992 476.858 79.5081L476.863 79.5027Z" fill="black"/>
<path d="M205.841 95.5159C196.079 100.132 184.875 99.9763 175.255 95.457C162.332 89.383 155.598 75.0262 157.273 60.4764C158.607 48.8752 164.858 39.1021 175.032 34.2129C185.175 29.3397 197.038 29.3612 207.104 34.6364C218.734 40.7319 224.955 53.7055 224.041 67.242C223.209 79.5401 216.872 90.2997 205.841 95.5159ZM183.85 84.5527C191.801 87.5709 200.696 85.2389 205.237 77.8514C209.52 70.8768 209.591 61.8542 206.602 54.3488C204.187 48.2802 199.067 44.8491 193.095 43.9967C184.337 42.7422 176.173 47.8995 173.773 56.9918C171.023 67.4136 173.748 80.7249 183.85 84.5581V84.5527Z" fill="black"/>
<path d="M138.743 96.0362C126.144 101.204 109.217 98.9312 98.4198 89.9515C97.0955 88.8525 97.3441 87.1531 98.1914 85.8986L102.398 79.6852C105.528 75.064 108.096 83.7595 119.796 85.9897C125.474 87.0726 135.11 86.5526 135.216 79.4117C135.379 68.5664 109.258 72.3245 101.961 59.4206C96.7656 50.2265 100.708 38.8772 109.532 34.1971C120.943 28.1445 136.825 29.8011 147.074 37.9766C147.932 38.6628 147.886 40.3408 147.394 41.2093L143.33 48.3823C142.32 50.1621 140.407 49.417 139.108 48.4252C128.777 40.5713 114.991 41.6757 114.448 48.838C113.571 60.3534 140.392 55.3945 148.084 69.5261C153.569 79.6048 148.916 91.86 138.743 96.0309V96.0362Z" fill="black"/>
<path d="M23.6701 94.5296C23.6853 95.3659 22.6452 96.8616 21.9145 97.0224C15.6025 98.4056 3.56193 99.6601 1.1112 91.2701C0.400846 88.8308 0 86.2039 0 83.3733L0.0203003 4.16455C0.0203003 1.95581 0.771246 0.749603 3.01395 0.760325L13.7302 0.808572C15.1864 0.813933 16.5361 1.93974 16.5361 3.68743L16.4854 80.9073C16.4854 82.0224 16.9369 83.4698 17.5002 84.022C19.5856 86.0538 23.457 83.4216 23.5128 86.2897L23.6701 94.5242V94.5296Z" fill="black"/>
<path d="M364.845 86.2575L364.992 94.299C365.078 99.0113 352.693 98.1696 349.526 97.3762C342.798 95.6875 341.388 90.6535 341.388 83.384L341.408 3.0923C341.408 1.79494 342.91 0.808522 343.864 0.803161L355.204 0.770996C356.523 0.770996 357.848 1.88072 357.848 3.59624L357.817 80.6821C357.817 81.9258 358.309 83.3357 358.979 84.038C361.004 86.161 364.799 83.3358 364.855 86.2575H364.845Z" fill="black"/>
<path d="M324.258 97.3173H312.918C311.883 97.3173 310.883 96.3523 310.685 95.13L310.721 34.7222C310.721 33.3016 311.69 32.165 312.958 32.165L324.136 32.1865C325.745 32.1865 326.648 33.5106 326.648 35.2101L326.663 94.6743C326.663 96.1379 325.455 97.3226 324.258 97.3226V97.3173Z" fill="black"/>
<path d="M323.233 19.4594C319.712 21.191 315.135 20.746 312.157 18.5266C308.351 15.6906 307.499 10.6995 309.178 6.34105C310.675 2.45433 314.577 -0.226183 319.067 0.0150624C323.532 0.250946 327.206 3.39785 328.272 7.67057C329.337 11.9433 327.729 17.2507 323.238 19.4594H323.233Z" fill="black"/>
</svg>
