<svg width="36" height="35" viewBox="0 0 36 35" fill="none" xmlns="http://www.w3.org/2000/svg">
<path d="M17.3754 0.024693C6.65169 0.571348 -0.427214 8.77619 0.0200368 19.1225C0.215388 23.6512 2.0815 27.548 2.52361 31.8461C2.63671 32.9594 2.3077 34.3336 3.62375 34.8201C5.24311 35.4169 7.72612 34.4138 9.0833 33.4961C9.54597 33.1901 9.98808 32.834 10.3274 32.3927C11.7308 33.3005 13.0623 34.1781 14.7331 34.5693C22.0896 36.2895 30.1504 32.3526 33.7335 26.0284C40.468 14.1475 31.3636 -0.687464 17.3754 0.024693ZM13.2114 24.8198C12.6305 25.2611 12.0701 25.8629 11.4275 26.209C10.497 26.6955 10.2091 26.1889 9.85956 25.3865C8.75942 22.8338 8.62576 18.4856 9.26836 15.8125C10.132 12.1765 13.016 8.9768 16.9796 8.63577C20.9894 8.28972 24.7114 10.2757 26.3924 13.8616C30.1144 21.8408 20.5884 29.7196 13.2114 24.8248V24.8198Z" fill="black"/>
</svg>
